<?xml version="1.0" encoding="UTF-8" standalone="no"?>
<!-- Created with Inkscape (http://www.inkscape.org/) -->

<svg
   width="151.05531"
   height="151.05531"
   viewBox="0 0 39.966718 39.966718"
   version="1.1"
   id="svg2489"
   xmlns="http://www.w3.org/2000/svg"
   xmlns:svg="http://www.w3.org/2000/svg">
  <defs
     id="defs2486" />
  <g
     id="layer1"
     transform="translate(0.13960788,0.13960788)">
    <g
       transform="matrix(0.59297763,0,0,0.59297763,0.1568921,0.1568921)"
       id="g15118"
       style="stroke:#000000;stroke-width:1.00004;stroke-opacity:0.234756">
      <g
         id="g15098"
         style="stroke:#000000;stroke-width:1.00004;stroke-opacity:0.234756">
        <path
           style="fill:none;stroke:#000000;stroke-width:1.00004;stroke-opacity:0.234756"
           d="M 8.3,0 V 66.4"
           id="path15084" />
        <path
           style="fill:none;stroke:#000000;stroke-width:1.00004;stroke-opacity:0.234756"
           d="M 16.6,0 V 66.4"
           id="path15086" />
        <path
           style="fill:none;stroke:#000000;stroke-width:1.00004;stroke-opacity:0.234756"
           d="M 24.9,0 V 66.4"
           id="path15088" />
        <path
           style="fill:none;stroke:#000000;stroke-width:1.00004;stroke-opacity:0.234756"
           d="M 33.2,0 V 66.4"
           id="path15090" />
        <path
           style="fill:none;stroke:#000000;stroke-width:1.00004;stroke-opacity:0.234756"
           d="M 41.5,0 V 66.4"
           id="path15092" />
        <path
           style="fill:none;stroke:#000000;stroke-width:1.00004;stroke-opacity:0.234756"
           d="M 49.8,0 V 66.4"
           id="path15094" />
        <path
           style="fill:none;stroke:#000000;stroke-width:1.00004;stroke-opacity:0.234756"
           d="M 58.1,0 V 66.4"
           id="path15096" />
      </g>
      <g
         id="g15114"
         style="stroke:#000000;stroke-width:1.00004;stroke-opacity:0.234756">
        <path
           style="fill:none;stroke:#000000;stroke-width:1.00004;stroke-opacity:0.234756"
           d="M 0,8.3 H 66.4"
           id="path15100" />
        <path
           style="fill:none;stroke:#000000;stroke-width:1.00004;stroke-opacity:0.234756"
           d="M 0,16.6 H 66.4"
           id="path15102" />
        <path
           style="fill:none;stroke:#000000;stroke-width:1.00004;stroke-opacity:0.234756"
           d="M 0,24.9 H 66.4"
           id="path15104" />
        <path
           style="fill:none;stroke:#000000;stroke-width:1.00004;stroke-opacity:0.234756"
           d="M 0,33.2 H 66.4"
           id="path15106" />
        <path
           style="fill:none;stroke:#000000;stroke-width:1.00004;stroke-opacity:0.234756"
           d="M 0,41.5 H 66.4"
           id="path15108" />
        <path
           style="fill:none;stroke:#000000;stroke-width:1.00004;stroke-opacity:0.234756"
           d="M 0,49.8 H 66.4"
           id="path15110" />
        <path
           style="fill:none;stroke:#000000;stroke-width:1.00004;stroke-opacity:0.234756"
           d="M 0,58.1 H 66.4"
           id="path15112" />
      </g>
      <rect
         x="0"
         y="0"
         width="66.400002"
         height="66.400002"
         style="fill:none;stroke:#000000;stroke-width:1.00004;stroke-opacity:0.234756"
         id="rect15116" />
    </g>
    <path
       style="fill:none;fill-opacity:1;fill-rule:evenodd;stroke:#000000;stroke-width:0.592974;stroke-linecap:butt;stroke-linejoin:miter;stroke-dasharray:none;stroke-opacity:1"
       d="m 27.210929,33.20515 -1.526382,2.419169 -2.591968,1.036787 -1.497585,-1.497583 -0.230398,0.748791 -0.719989,1.007987 -6.393518,1.123187 L 11.515124,36.027514 9.9311444,35.854716 9.0383559,34.933128 6.5903883,35.45152 5.3232038,35.566719 5.9855955,33.435547 4.8048108,33.406752 4.8624102,31.851571 5.8127979,31.822765 4.4592148,29.288402 2.7024379,25.141256 2.9040353,22.002097 2.328043,19.784525 1.8960482,18.603739 2.7312374,17.509355 3.2784304,16.99096 2.4144418,15.550979 3.5952266,14.600592 3.1056333,14.168598 2.0688467,12.325421 3.2784304,10.770241 3.3360304,5.7879053 7.5119756,5.9031034 7.1375809,2.4759483 h 2.2463713 l 0.086397,1.5839793 1.5551798,0.7199906 -0.115199,-1.2671836 3.513555,-1.0079868 2.246371,1.6703785 1.151984,-2.2463711 2.217571,3.0527609 2.505575,0.8351889 0.02881,-0.8927886 1.353584,-0.057599 1.987172,-1.9583739 3.369557,-0.201598 2.246376,0.8927883 1.699172,0.2303969 1.497582,0.9791873 1.180785,8.035097 -0.431994,1.756777 1.151982,1.497582 -1.555183,1.900775 1.123189,1.382381 -1.555178,9.561477 -0.633588,0.115198 -0.777595,1.094387 -1.151982,-0.316797 -1.699178,0.921589 1.151982,5.788726 -1.353583,-1.00799 -1.41118,-0.172797 -1.267184,-0.69119 z"
       id="path302" />
    <path
       style="fill:none;fill-rule:evenodd;stroke:#000000;stroke-width:0.592974;stroke-linecap:butt;stroke-linejoin:miter;stroke-dasharray:none;stroke-opacity:1"
       d="m 23.837494,23.798848 0.264734,-0.264736 0.224011,-0.224009 -0.101822,-0.142551 0.325829,-0.346195 0.386926,-0.346196 h -0.244374 c -0.128973,0.0068 -0.31195,0.121841 -0.365321,0.05996 -0.0432,-0.0684 0.629032,-0.437322 0.629032,-0.437322 0,0 0.09924,0.06717 0.146049,0.0023 0.03599,-0.036 -0.02283,-0.09339 -0.02283,-0.09339 l 0.18328,-0.122186 0.244375,-0.346195 0.22401,-0.02036 0.610927,-0.753481 0.08146,0.02036 2.403002,-2.097534 0.464779,-0.386924 c 0,0 -0.05647,-0.0762 0.06233,-0.299395 0.09721,-0.111599 0.450107,-0.322124 0.559403,-0.400195 0.2052,-0.02881 0.359362,0.0647 0.359362,0.0647 L 31.1508,17.164717 c 0.49679,-0.284397 0.84161,-0.417876 1.097207,-0.493475 0.156651,-0.04374 0.349381,-0.07868 0.529473,-0.101822 0.157043,-0.02925 0.385192,-0.02091 0.590568,0.01202 0.363595,0.072 0.546346,0.239538 0.546346,0.239538 0,0 0.372102,0.243844 0.548499,0.582239 0.125997,0.05401 0.165276,0.358936 0.208478,0.571332 0.0576,0.349197 0.02272,0.644567 0.02272,0.813766 -0.0648,0.118798 -0.327984,0.546627 -0.475578,0.787824 l -0.760684,1.17157 -0.401329,0.518675 c 0,0 0.09102,0.05851 0.148623,0.170115 0.03599,0.0936 0.03364,0.147176 0.02284,0.204775 -0.0648,0.115198 -0.11139,0.16415 -0.11139,0.16415 0,0 -0.123318,-0.0095 -0.198916,0.04443 -0.054,0.0396 -0.05265,0.117243 -0.07426,0.218042 -0.0288,0.09359 -0.188111,0.101717 -0.188111,0.101717 0,0 -0.07168,-0.06964 -0.140078,0.01317 -0.07201,0.0828 -0.04083,0.140081 0.04557,0.208479 -0.02296,0.0809 -0.06562,0.145364 -0.09843,0.218044 0,0 -0.05008,0.1374 -0.08968,0.288597 -0.421194,0.280797 -0.57998,0.475581 -0.57998,0.475581 L 31.62154,23.60223 c -0.0432,0.0504 -0.08989,0.134114 -0.08989,0.173714 0.0072,0.251997 -0.01203,0.327984 -0.02284,0.511581 0,0.107999 0.0025,0.03208 0.006,0.183279 0,0 -0.251362,0.196444 -0.366559,0.203645 -0.09359,0.01081 -0.224005,-0.06109 -0.224005,-0.06109 l -0.203649,-0.142505 -0.08146,-0.122189 -0.32583,-0.06109 h -0.08146 l -0.03466,-0.15335 -0.353393,0.294667 0.125678,0.08393 c 0.0216,0.01801 0.0359,0.05975 0.01428,0.117349 -0.0216,0.0648 -0.06109,0.101823 -0.104297,0.09822 0,0 -0.09194,-0.03117 -0.142338,0.01203 -0.0432,0.0432 0.02509,0.111282 0.02509,0.111282 0,0 0.01812,0.09215 -0.03229,0.19655 -0.0684,0.122398 -0.801412,0.86847 -0.801412,0.86847 l -0.73312,0.529473 -0.590561,0.285104 -0.203647,-0.162916 0.244371,-0.468381 0.386924,-0.488746 -0.651658,0.122186 -0.529477,-0.101821 -0.346197,-0.142553 -1.486602,-1.649515 -0.733119,0.346194 z"
       id="path1008" />
    <path
       style="fill:none;fill-rule:evenodd;stroke:#ff6000;stroke-width:0.296489;stroke-linecap:butt;stroke-linejoin:miter;stroke-dasharray:none;stroke-opacity:1"
       d="m 30.720665,17.445151 -0.488748,0.305467 c -0.331198,0.208797 -0.766135,0.54264 -0.766135,0.54264 -0.194397,0.143996 -0.265038,0.22976 -0.394634,0.37376 0.07199,0.0792 0.142551,0.112003 0.142551,0.112003 0.072,0.036 0.183279,-0.02037 0.183279,-0.02037 l 0.274919,0.325832 c 0.131283,-0.05627 0.300057,-0.09916 0.494196,0.01615 0,0 0.02983,-0.148515 0.08022,-0.162915 0.05039,-0.0144 0.155716,0.104805 0.155716,0.104805 l 0.56475,-0.300014 0.05935,-0.218044 c 0.05041,-0.09359 0.177107,-0.241901 0.285105,-0.2851 0.072,-0.0144 0.132364,0.01018 0.132364,0.01018 l 0.183279,-0.224008 0.254561,0.09164 0.274917,0.600751 -1.8328,1.323687 0.113243,0.189242 0.171861,-0.05687 0.346196,0.397105 0.132369,0.152733 0.305465,-0.132367 0.40009,0.739083 0.07847,-0.199428 0.394125,-0.01368 c 0,0 -0.08393,-0.262989 -0.04793,-0.291789 0.03599,-0.0288 0.188731,0.218045 0.188731,0.218045 l 0.299504,0.07425 0.238197,-0.413254 0.05287,0.495947 0.625844,-0.660097 c 0,0 -0.0079,-0.338783 0.07128,-0.468381 0.06788,-0.100893 0.135763,-0.04756 0.203644,-0.07127"
       id="path1010" />
    <path
       style="fill:none;fill-rule:evenodd;stroke:#17ab17;stroke-width:0.592974;stroke-linecap:butt;stroke-linejoin:miter;stroke-dasharray:none;stroke-opacity:1"
       d="m 22.343788,9.3014593 c 0.0576,-0.057591 0.273596,0.018006 0.331196,0.018006 0.144001,0.00361 0.248398,0.0108 0.352795,-0.0108 0.129601,-0.036002 0.467997,-0.1619986 0.532796,-0.1871991 0.140395,-0.053998 0.205197,-0.032399 0.237595,-0.00723 0,0 0.161998,0.082794 0.194399,0.3347957 0.03599,0.1583984 -0.05041,0.2519959 -0.0792,0.2771964 -0.01657,0.024249 -0.05769,-0.00833 -0.107998,0.025203 -0.0648,0.079201 -0.124608,0.1249716 -0.259198,0.3059947 -0.02522,0.208209 -0.02759,0.305996 -0.0684,0.453595 -0.0048,0.100754 -0.0276,0.107998 -0.06121,0.151198 l 0.02881,0.151199 -0.187197,-0.02881 -0.165598,0.187196 -0.115197,-0.036 -0.0216,-0.208798 -0.122399,-0.244797 -0.194397,-0.0792 0.0072,-0.273598 -0.151199,-0.1871965 V 9.7766523 L 22.329393,9.517457 c 0,0 -0.0144,-0.187198 0.0144,-0.2159977 z"
       id="path1738" />
    <path
       style="font-variation-settings:normal;fill:none;fill-opacity:1;fill-rule:evenodd;stroke:#17ab17;stroke-width:0.592974;stroke-linecap:butt;stroke-linejoin:miter;stroke-miterlimit:4;stroke-dasharray:none;stroke-dashoffset:0;stroke-opacity:1;stop-color:#000000"
       d="m 23.225779,9.7334528 c -0.027,0.0108 -0.05579,0.044995 -0.0576,0.068401 -0.0018,0.018006 -0.0216,0.1709976 -0.0035,0.2015982 0.04513,0.04867 0.100798,0.0036 0.129595,0.0324 0.01353,0.02424 0.0666,0.134997 0.106199,0.136797 0.02881,-0.0018 -0.0162,-0.0972 -0.0054,-0.111597 0,-0.01801 0.06119,-0.0054 0.07199,-0.0216 0.0198,-0.01801 -0.0288,-0.1817984 -0.0324,-0.2087975 0.0035,-0.00903 0.0594,-0.00361 0.0612,-0.025203 0,0 0.027,-0.086397 0.0108,-0.093593 -0.0378,-0.030602 -0.0972,0.055795 -0.126001,0.057591 -0.03059,0.0108 -0.120591,-0.048598 -0.154794,-0.036002 z"
       id="path1740" />
    <path
       style="fill:none;fill-rule:evenodd;stroke:#b874b8;stroke-width:0.592974;stroke-linecap:butt;stroke-linejoin:miter;stroke-dasharray:none;stroke-opacity:1"
       d="m 11.10473,29.223602 c -0.0504,0.0432 -0.0144,0.273596 -0.0144,0.273596 l -0.0864,0.0936 0.0576,0.0792 0.0648,0.172799 0.158398,0.0432 c 0,0 0.100799,0.309595 0.151198,0.323997 0.05759,0.0288 0.151197,0.0216 0.201597,0.0648 0.0792,0.05039 0.151198,0.223196 0.151198,0.223196 0.036,0.05759 0.158399,0.0072 0.194398,0.05759 0.05039,0.072 0.0216,0.158399 0.0216,0.158399 0.0576,0.100799 0.323996,0.151198 0.388796,0.237599 0,0 0.237596,0.410393 0.302395,0.467991 0.0648,0.02881 0.115199,-0.05759 0.165599,-0.0072 0.05039,0.0216 0.122397,0.287995 0.151197,0.295195 0.02881,0.0072 0.215997,0.0576 0.215997,0.0576 l 0.230398,-0.0504 0.136797,-0.129599 v -0.0864 l 0.072,-0.0432 0.129599,-0.0144 0.107999,-0.129599 -0.0072,-0.179998 0.072,-0.0432 -0.0504,-0.208797 -0.172798,-0.107998 h -0.0792 l -0.072,-0.0792 c 0,0 -0.156597,0.0017 -0.214196,-0.0414 -0.06655,-0.03076 -0.05215,-0.124513 -0.0072,-0.1494 0.0252,-0.0234 0.271797,0.0252 0.314996,0.01081 0.04583,-0.01657 0.156443,-0.0816 0.194398,-0.122398 0.0198,-0.0378 0.02881,-0.215998 0.02881,-0.215998 v -0.136803 l 0.0216,-0.136797 -0.0216,-0.194399 -0.100798,-0.143997 -0.143998,0.0072 -0.0936,-0.215996 -0.100797,-0.108 -0.151199,-0.0432 -0.0432,-0.0648 c 0,0 -0.107998,0.0864 -0.136797,0.0864 0,0 -0.122398,-0.02881 -0.165598,-0.072 -0.06972,-0.04025 -0.036,-0.172798 -0.0864,-0.215997 l -0.208756,-0.06481 c 0,0 -0.215997,0 -0.273596,0.036 -0.0792,0.0432 -0.122398,0.273596 -0.187198,0.273596 h -0.122394 c -0.072,0 -0.158398,-0.100799 -0.266396,-0.0936 -0.0864,-0.0144 -0.151199,0.0432 -0.201599,0.0648 0,0 -0.0648,0.136799 -0.100798,0.129598 -0.0576,-0.0072 -0.072,-0.136798 -0.115199,-0.136798 -0.0432,-0.0072 -0.0432,0.0648 -0.0432,0.0648 -0.0216,0.0288 -0.194398,-0.0288 -0.266396,0.0144 z m 1.785576,0.892789 -0.0144,0.208797 0.0648,-0.0144 0.02881,0.0648 0.158397,-0.0216 v -0.1368 l -0.07199,-0.0144 0.07199,-0.0792 0.0792,-0.0792 -0.0864,-0.0648 -0.0432,-0.02881 -0.0576,0.0144 -0.0288,0.136798 z"
       id="path2487" />
    <circle
       style="color:#000000;overflow:visible;fill:none;stroke:#989898;stroke-width:0.592974;stroke-dasharray:none;stop-color:#000000"
       id="path937"
       cx="29.737511"
       cy="21.484108"
       r="9.0214348" />
    <line
       style="stroke:red;stroke-width:0.5px"
       x1="0" y1="{{y}}"
       x2="40" y2="{{y}}" />
    <line
       style="stroke:red;stroke-width:0.5px"
       x1="{{x}}" y1="0"
       x2="{{x}}" y2="40" />
  </g>
</svg>
